<svg xmlns="http://www.w3.org/2000/svg" xmlns:xlink="http://www.w3.org/1999/xlink" width="1080" zoomAndPan="magnify" viewBox="0 0 810 809.999993" height="1080" preserveAspectRatio="xMidYMid meet" version="1.0"><path fill="#00bf63" d="M 740.757812 546.828125 C 722.402344 590.214844 696.128906 629.1875 662.65625 662.65625 C 629.1875 696.128906 590.214844 722.402344 546.828125 740.753906 C 501.917969 759.75 454.199219 769.382812 405 769.382812 C 355.796875 769.382812 308.082031 759.75 263.171875 740.753906 C 219.785156 722.402344 180.8125 696.128906 147.34375 662.65625 C 113.871094 629.1875 87.597656 590.214844 69.242188 546.828125 C 50.25 501.917969 40.617188 454.203125 40.617188 405 C 40.617188 355.796875 50.25 308.082031 69.242188 263.171875 C 87.597656 219.785156 113.871094 180.8125 147.34375 147.34375 C 180.8125 113.871094 219.785156 87.59375 263.171875 69.242188 C 308.082031 50.25 355.796875 40.617188 405 40.617188 C 454.199219 40.617188 501.917969 50.25 546.828125 69.242188 C 590.214844 87.59375 629.1875 113.871094 662.65625 147.34375 C 696.128906 180.8125 722.402344 219.785156 740.757812 263.171875 C 759.75 308.082031 769.382812 355.796875 769.382812 405 C 769.382812 454.203125 759.75 501.917969 740.757812 546.828125 Z M 778.183594 247.339844 C 757.785156 199.109375 728.582031 155.796875 691.390625 118.609375 C 654.203125 81.417969 610.890625 52.214844 562.660156 31.820312 C 512.710938 10.691406 459.667969 -0.0195312 405 -0.0195312 C 350.332031 -0.0195312 297.289062 10.691406 247.339844 31.820312 C 199.109375 52.214844 155.796875 81.417969 118.609375 118.609375 C 81.417969 155.796875 52.214844 199.109375 31.816406 247.339844 C 10.691406 297.289062 -0.0195312 350.332031 -0.0195312 405 C -0.0195312 459.667969 10.691406 512.710938 31.816406 562.660156 C 52.214844 610.890625 81.417969 654.203125 118.609375 691.390625 C 155.796875 728.582031 199.109375 757.785156 247.339844 778.183594 C 297.289062 799.308594 350.332031 810.019531 405 810.019531 C 459.667969 810.019531 512.710938 799.308594 562.660156 778.183594 C 610.890625 757.785156 654.203125 728.582031 691.390625 691.390625 C 728.582031 654.203125 757.785156 610.890625 778.183594 562.660156 C 799.308594 512.710938 810.019531 459.667969 810.019531 405 C 810.019531 350.332031 799.308594 297.289062 778.183594 247.339844 " fill-opacity="1" fill-rule="nonzero"/><path fill="#00bf63" d="M 517.769531 334.222656 C 543.578125 334.222656 564.5 313.300781 564.5 287.492188 C 564.5 261.679688 543.578125 240.757812 517.769531 240.757812 C 491.960938 240.757812 471.035156 261.679688 471.035156 287.492188 C 471.035156 313.300781 491.960938 334.222656 517.769531 334.222656 " fill-opacity="1" fill-rule="nonzero"/><path fill="#00bf63" d="M 292.230469 334.222656 C 318.039062 334.222656 338.964844 313.300781 338.964844 287.492188 C 338.964844 261.679688 318.039062 240.757812 292.230469 240.757812 C 266.421875 240.757812 245.5 261.679688 245.5 287.492188 C 245.5 313.300781 266.421875 334.222656 292.230469 334.222656 " fill-opacity="1" fill-rule="nonzero"/><path fill="#00bf63" d="M 575.207031 519.308594 C 565.445312 513.773438 553.046875 517.195312 547.507812 526.949219 C 532.84375 552.789062 510.976562 574.382812 484.273438 589.390625 C 459.496094 603.316406 431.222656 610.984375 404.664062 610.984375 C 378.097656 610.984375 349.828125 603.316406 325.046875 589.390625 C 298.347656 574.382812 276.480469 552.789062 261.816406 526.949219 C 256.277344 517.195312 243.875 513.773438 234.113281 519.308594 C 224.355469 524.847656 220.933594 537.25 226.472656 547.011719 C 244.789062 579.28125 271.992188 606.183594 305.136719 624.816406 C 336.34375 642.355469 370.753906 651.625 404.664062 651.625 C 438.566406 651.625 472.980469 642.355469 504.183594 624.816406 C 537.332031 606.183594 564.535156 579.28125 582.847656 547.011719 C 588.386719 537.25 584.96875 524.847656 575.207031 519.308594 " fill-opacity="1" fill-rule="nonzero"/></svg>